<svg xmlns="http://www.w3.org/2000/svg" style="display:none">
  <!-- 16x16 one-bit pixel glyphs. Use: <svg class="pi-ic"><use href="/shared/icons.svg#i-play"/></svg> -->
  <symbol id="i-play" viewBox="0 0 16 16" shape-rendering="crispEdges">
    <rect x="4" y="3" width="2" height="10"/><rect x="6" y="4" width="2" height="8"/>
    <rect x="8" y="5" width="2" height="6"/><rect x="10" y="6" width="2" height="4"/>
    <rect x="12" y="7" width="2" height="2"/>
  </symbol>
  <symbol id="i-pause" viewBox="0 0 16 16" shape-rendering="crispEdges">
    <rect x="4" y="3" width="3" height="10"/><rect x="9" y="3" width="3" height="10"/>
  </symbol>
  <symbol id="i-restart" viewBox="0 0 16 16" shape-rendering="crispEdges">
    <rect x="4" y="3" width="5" height="2"/><rect x="4" y="5" width="2" height="6"/>
    <rect x="4" y="11" width="8" height="2"/><rect x="12" y="5" width="2" height="6"/>
    <rect x="10" y="1" width="2" height="2"/><rect x="10" y="3" width="2" height="2"/>
    <rect x="12" y="3" width="2" height="2"/>
  </symbol>
  <symbol id="i-check" viewBox="0 0 16 16" shape-rendering="crispEdges">
    <rect x="3" y="8" width="2" height="2"/><rect x="5" y="10" width="2" height="2"/>
    <rect x="7" y="8" width="2" height="2"/><rect x="9" y="6" width="2" height="2"/>
    <rect x="11" y="4" width="2" height="2"/>
  </symbol>
  <symbol id="i-x" viewBox="0 0 16 16" shape-rendering="crispEdges">
    <rect x="3" y="3" width="2" height="2"/><rect x="5" y="5" width="2" height="2"/>
    <rect x="7" y="7" width="2" height="2"/><rect x="9" y="9" width="2" height="2"/>
    <rect x="11" y="11" width="2" height="2"/><rect x="11" y="3" width="2" height="2"/>
    <rect x="9" y="5" width="2" height="2"/><rect x="5" y="9" width="2" height="2"/>
    <rect x="3" y="11" width="2" height="2"/>
  </symbol>
  <symbol id="i-hold" viewBox="0 0 16 16" shape-rendering="crispEdges">
    <rect x="4" y="2" width="8" height="2"/><rect x="6" y="4" width="4" height="2"/>
    <rect x="7" y="6" width="2" height="4"/><rect x="6" y="10" width="4" height="2"/>
    <rect x="4" y="12" width="8" height="2"/>
  </symbol>
  <symbol id="i-search" viewBox="0 0 16 16" shape-rendering="crispEdges">
    <rect x="5" y="2" width="4" height="2"/><rect x="3" y="4" width="2" height="4"/>
    <rect x="9" y="4" width="2" height="4"/><rect x="5" y="8" width="4" height="2"/>
    <rect x="10" y="9" width="2" height="2"/><rect x="12" y="11" width="2" height="2"/>
  </symbol>
  <symbol id="i-doc" viewBox="0 0 16 16" shape-rendering="crispEdges">
    <rect x="4" y="2" width="6" height="2"/><rect x="4" y="2" width="2" height="12"/>
    <rect x="4" y="12" width="8" height="2"/><rect x="10" y="4" width="2" height="10"/>
    <rect x="9" y="2" width="2" height="2"/>
  </symbol>
  <symbol id="i-chart" viewBox="0 0 16 16" shape-rendering="crispEdges">
    <rect x="3" y="9" width="2" height="4"/><rect x="7" y="6" width="2" height="7"/>
    <rect x="11" y="3" width="2" height="10"/><rect x="2" y="13" width="12" height="2"/>
  </symbol>
  <symbol id="i-alert" viewBox="0 0 16 16" shape-rendering="crispEdges">
    <rect x="2" y="12" width="12" height="2"/>
    <rect x="7" y="2" width="2" height="2"/>
    <rect x="6" y="4" width="2" height="2"/><rect x="8" y="4" width="2" height="2"/>
    <rect x="5" y="6" width="2" height="2"/><rect x="9" y="6" width="2" height="2"/>
    <rect x="4" y="8" width="2" height="2"/><rect x="10" y="8" width="2" height="2"/>
    <rect x="3" y="10" width="2" height="2"/><rect x="11" y="10" width="2" height="2"/>
    <rect x="7" y="6" width="2" height="4"/>
  </symbol>
  <symbol id="i-arrow-r" viewBox="0 0 16 16" shape-rendering="crispEdges">
    <rect x="2" y="7" width="8" height="2"/><rect x="10" y="5" width="2" height="2"/>
    <rect x="10" y="7" width="2" height="2"/><rect x="10" y="9" width="2" height="2"/>
    <rect x="12" y="7" width="2" height="2"/>
  </symbol>
  <symbol id="i-rollback" viewBox="0 0 16 16" shape-rendering="crispEdges">
    <rect x="6" y="7" width="8" height="2"/><rect x="4" y="7" width="2" height="2"/>
    <rect x="6" y="5" width="2" height="2"/><rect x="6" y="9" width="2" height="2"/>
    <rect x="2" y="3" width="2" height="10"/>
  </symbol>
  <symbol id="i-signal" viewBox="0 0 16 16" shape-rendering="crispEdges">
    <rect x="3" y="10" width="2" height="3"/><rect x="7" y="7" width="2" height="6"/>
    <rect x="11" y="4" width="2" height="9"/>
  </symbol>
  <symbol id="i-eye" viewBox="0 0 16 16" shape-rendering="crispEdges">
    <rect x="5" y="5" width="6" height="2"/><rect x="5" y="9" width="6" height="2"/>
    <rect x="3" y="7" width="2" height="2"/><rect x="11" y="7" width="2" height="2"/>
    <rect x="7" y="7" width="2" height="2"/>
  </symbol>
  <symbol id="i-lamp" viewBox="0 0 16 16" shape-rendering="crispEdges">
    <rect x="4" y="4" width="8" height="8"/>
  </symbol>
</svg>
